<svg xmlns="http://www.w3.org/2000/svg" width="731" height="186" fill="none"><path fill="url(#a)" d="M484.069 63.012c13.443-13.394 35.289-14.068 49.532-1.553 14.581 12.811 27.759 28.876 42.332 41.901 11.381 9.376 29.17 3.131 31.891-11.299 3.357-17.79-16.593-30.363-31.215-19.475-1.443 1.076-3.134 3.246-4.387 4.092-.248.164-.429.345-.759.222L560.42 65.724c5.394-5.95 12.412-10.798 20.412-12.466 18.655-3.887 36.781 6.656 42.266 24.784 8.824 29.197-20.766 54.86-48.724 42.994-10.185-4.323-22.597-19.155-30.811-27.2-6.515-6.385-13.921-14.602-20.7-20.363-10.696-9.072-27.743-4.98-31.99 8.587-5.971 19.065 16.387 33.832 31.974 20.758.717-.6 2.68-3.066 3.406-2.876l11.043 11.175c-5.369 6.032-13.031 10.979-21.154 12.252-35.099 5.498-56.591-35.95-32.073-60.381v.024Z"/><path fill="#000" d="M404.799 69.834v36.928c0 3.049.647 5.221 1.943 6.517 1.296 1.22 3.544 1.829 6.746 1.829h7.66v8.804h-9.375c-5.793 0-10.138-1.334-13.034-4.002-2.896-2.667-4.344-7.05-4.344-13.148V69.834h-8.118v-8.575h8.118V45.48h10.404v15.78h16.349v8.575h-16.349Zm-54.724-9.718c4.725 0 8.994 1.029 12.805 3.087 3.811 1.981 6.783 4.992 8.917 9.032 2.211 4.04 3.316 8.956 3.316 14.748v36.929h-10.29V88.47c0-6.25-1.562-11.014-4.687-14.292-3.125-3.353-7.394-5.03-12.805-5.03-5.488 0-9.871 1.715-13.148 5.145-3.202 3.43-4.802 8.422-4.802 14.977v34.642h-10.404V39.308h10.404v30.869c2.058-3.202 4.878-5.679 8.46-7.432 3.659-1.753 7.737-2.63 12.234-2.63Zm-82.522.114c5.412 0 10.138 1.181 14.177 3.544 4.116 2.363 7.165 5.335 9.147 8.918V61.259h10.518v64.025c0 5.716-1.22 10.785-3.659 15.206-2.439 4.497-5.945 8.003-10.518 10.518-4.497 2.515-9.756 3.773-15.777 3.773-8.232 0-15.092-1.944-20.58-5.831-5.488-3.887-8.727-9.184-9.718-15.892h10.29c1.143 3.811 3.506 6.86 7.088 9.147 3.583 2.362 7.889 3.544 12.92 3.544 5.716 0 10.365-1.791 13.948-5.374 3.658-3.582 5.488-8.613 5.488-15.091v-13.148c-2.058 3.658-5.107 6.707-9.147 9.146-4.039 2.439-8.765 3.659-14.177 3.659-5.564 0-10.632-1.372-15.206-4.116-4.497-2.744-8.041-6.593-10.632-11.548-2.592-4.954-3.888-10.594-3.888-16.92 0-6.403 1.296-12.005 3.888-16.807 2.591-4.878 6.135-8.65 10.632-11.319 4.574-2.667 9.642-4.001 15.206-4.001Zm23.324 32.24c0-4.725-.953-8.84-2.859-12.347-1.905-3.506-4.497-6.174-7.774-8.003-3.201-1.905-6.746-2.858-10.633-2.858-3.887 0-7.431.915-10.632 2.744-3.202 1.83-5.755 4.497-7.661 8.003-1.905 3.506-2.858 7.622-2.858 12.348 0 4.802.953 8.994 2.858 12.576 1.906 3.506 4.459 6.212 7.661 8.117 3.201 1.83 6.745 2.744 10.632 2.744 3.887 0 7.432-.914 10.633-2.744 3.277-1.905 5.869-4.611 7.774-8.117 1.906-3.582 2.859-7.736 2.859-12.462Zm-71.925-41.386c-1.981 0-3.658-.686-5.03-2.058-1.372-1.372-2.058-3.05-2.058-5.03 0-1.983.686-3.66 2.058-5.031 1.372-1.372 3.049-2.058 5.03-2.058 1.906 0 3.506.686 4.802 2.058 1.372 1.371 2.058 3.048 2.058 5.03 0 1.982-.686 3.659-2.058 5.03-1.296 1.373-2.896 2.059-4.802 2.059Zm5.031 10.175v62.653h-10.404V61.259h10.404Zm-28.136-21.951v84.604h-10.404V39.308h10.404ZM171.71 90.184c0 1.982-.115 4.078-.343 6.288H121.29c.381 6.174 2.477 11.014 6.288 14.52 3.888 3.43 8.575 5.145 14.063 5.145 4.497 0 8.232-1.029 11.204-3.087 3.049-2.134 5.183-4.954 6.403-8.46h11.204c-1.677 6.021-5.03 10.938-10.061 14.749-5.03 3.734-11.28 5.602-18.75 5.602-5.945 0-11.281-1.334-16.006-4.002-4.65-2.668-8.308-6.44-10.976-11.319-2.668-4.954-4.001-10.67-4.001-17.15 0-6.478 1.295-12.156 3.887-17.034 2.591-4.878 6.212-8.613 10.861-11.205 4.726-2.667 10.137-4.001 16.235-4.001 5.945 0 11.204 1.296 15.778 3.887 4.573 2.592 8.079 6.174 10.518 10.747 2.515 4.497 3.773 9.604 3.773 15.32Zm-10.747-2.172c0-3.963-.877-7.355-2.63-10.175-1.753-2.897-4.154-5.069-7.203-6.517-2.972-1.524-6.288-2.287-9.946-2.287-5.26 0-9.757 1.677-13.491 5.03-3.659 3.355-5.755 8.004-6.288 13.95h39.558ZM33.395 92.357c0-6.403 1.296-12.005 3.888-16.807 2.591-4.878 6.135-8.65 10.632-11.318 4.574-2.668 9.68-4.002 15.32-4.002 4.879 0 9.414 1.143 13.606 3.43 4.192 2.21 7.393 5.145 9.604 8.803V39.308h10.518v84.604H86.445v-11.776c-2.058 3.735-5.107 6.822-9.147 9.261-4.04 2.362-8.765 3.544-14.177 3.544-5.564 0-10.633-1.372-15.206-4.116-4.497-2.744-8.04-6.593-10.632-11.547-2.592-4.955-3.888-10.595-3.888-16.921Zm53.05.114c0-4.725-.953-8.841-2.859-12.347-1.905-3.507-4.497-6.174-7.774-8.004-3.201-1.905-6.746-2.858-10.633-2.858-3.887 0-7.431.915-10.633 2.744-3.2 1.83-5.754 4.497-7.66 8.003-1.905 3.506-2.858 7.622-2.858 12.348 0 4.802.953 8.994 2.858 12.576 1.906 3.506 4.46 6.212 7.66 8.118 3.202 1.829 6.746 2.743 10.633 2.743 3.887 0 7.432-.914 10.633-2.743 3.277-1.906 5.869-4.612 7.774-8.118 1.906-3.582 2.859-7.736 2.859-12.462Zm369.564-53.163v84.604h-10.405V39.308h10.405Zm187.828 33.498c2.057-3.582 5.106-6.555 9.146-8.918 4.116-2.439 8.88-3.658 14.291-3.658 5.564 0 10.595 1.334 15.092 4.001 4.573 2.668 8.155 6.441 10.747 11.32 2.591 4.8 3.887 10.402 3.887 16.805 0 6.326-1.296 11.966-3.887 16.92-2.592 4.955-6.174 8.804-10.747 11.548-4.497 2.744-9.528 4.116-15.092 4.116-5.335 0-10.061-1.182-14.177-3.545-4.039-2.439-7.126-5.449-9.26-9.032v41.274h-10.405v-92.38h10.405v11.548Zm42.53 19.55c0-4.725-.952-8.84-2.858-12.347-1.905-3.506-4.497-6.174-7.774-8.003-3.202-1.83-6.746-2.744-10.633-2.744-3.811 0-7.355.953-10.633 2.858-3.201 1.83-5.792 4.535-7.774 8.118-1.906 3.506-2.858 7.584-2.858 12.233 0 4.726.952 8.88 2.858 12.462 1.982 3.506 4.573 6.212 7.774 8.117 3.278 1.83 6.822 2.744 10.633 2.744 3.887 0 7.431-.914 10.633-2.744 3.277-1.905 5.869-4.611 7.774-8.117 1.906-3.582 2.858-7.775 2.858-12.576Z"/><defs><linearGradient id="a" x1="614.421" x2="488.862" y1="113.704" y2="65.726" gradientUnits="userSpaceOnUse"><stop stop-color="#6941C6"/><stop offset=".48" stop-color="#D2CEFE"/><stop offset="1" stop-color="#6941C6"/></linearGradient></defs></svg>